<?xml version="1.0" encoding="utf-8" standalone="no"?>
<!DOCTYPE svg PUBLIC "-//W3C//DTD SVG 1.1//EN"
  "http://www.w3.org/Graphics/SVG/1.1/DTD/svg11.dtd">
<svg xmlns:xlink="http://www.w3.org/1999/xlink" width="882.307031pt" height="311.159844pt" viewBox="0 0 882.307031 311.159844" xmlns="http://www.w3.org/2000/svg" version="1.1">
 <metadata>
  <rdf:RDF xmlns:dc="http://purl.org/dc/elements/1.1/" xmlns:cc="http://creativecommons.org/ns#" xmlns:rdf="http://www.w3.org/1999/02/22-rdf-syntax-ns#">
   <cc:Work>
    <dc:type rdf:resource="http://purl.org/dc/dcmitype/StillImage"/>
    <dc:date>2023-02-10T11:35:29.748443</dc:date>
    <dc:format>image/svg+xml</dc:format>
    <dc:creator>
     <cc:Agent>
      <dc:title>Matplotlib v3.6.3, https://matplotlib.org/</dc:title>
     </cc:Agent>
    </dc:creator>
   </cc:Work>
  </rdf:RDF>
 </metadata>
 <defs>
  <style type="text/css">*{stroke-linejoin: round; stroke-linecap: butt}</style>
 </defs>
 <g id="figure_1">
  <g id="patch_1">
   <path d="M 0 311.159844 
L 882.307031 311.159844 
L 882.307031 0 
L 0 0 
z
" style="fill: #ffffff"/>
  </g>
  <g id="axes_1">
   <g id="patch_2">
    <path d="M 38.107031 284.4 
L 875.107031 284.4 
L 875.107031 7.2 
L 38.107031 7.2 
z
" style="fill: #eaeaf2"/>
   </g>
   <g id="matplotlib.axis_1">
    <g id="xtick_1">
     <g id="line2d_1">
      <path d="M 53.364844 284.4 
L 53.364844 7.2 
" clip-path="url(#p0a17f5d9e8)" style="fill: none; stroke: #ffffff; stroke-linecap: round"/>
     </g>
     <g id="text_1">
      <!-- 2 -->
      <g style="fill: #262626" transform="translate(50.306328 301.773594) scale(0.11 -0.11)">
       <defs>
        <path id="ArialMT-32" d="M 3222 541 
L 3222 0 
L 194 0 
Q 188 203 259 391 
Q 375 700 629 1000 
Q 884 1300 1366 1694 
Q 2113 2306 2375 2664 
Q 2638 3022 2638 3341 
Q 2638 3675 2398 3904 
Q 2159 4134 1775 4134 
Q 1369 4134 1125 3890 
Q 881 3647 878 3216 
L 300 3275 
Q 359 3922 746 4261 
Q 1134 4600 1788 4600 
Q 2447 4600 2831 4234 
Q 3216 3869 3216 3328 
Q 3216 3053 3103 2787 
Q 2991 2522 2730 2228 
Q 2469 1934 1863 1422 
Q 1356 997 1212 845 
Q 1069 694 975 541 
L 3222 541 
z
" transform="scale(0.015625)"/>
       </defs>
       <use xlink:href="#ArialMT-32"/>
      </g>
     </g>
    </g>
    <g id="xtick_2">
     <g id="line2d_2">
      <path d="M 75.161719 284.4 
L 75.161719 7.2 
" clip-path="url(#p0a17f5d9e8)" style="fill: none; stroke: #ffffff; stroke-linecap: round"/>
     </g>
     <g id="text_2">
      <!-- 3 -->
      <g style="fill: #262626" transform="translate(72.103203 301.773594) scale(0.11 -0.11)">
       <defs>
        <path id="ArialMT-33" d="M 269 1209 
L 831 1284 
Q 928 806 1161 595 
Q 1394 384 1728 384 
Q 2125 384 2398 659 
Q 2672 934 2672 1341 
Q 2672 1728 2419 1979 
Q 2166 2231 1775 2231 
Q 1616 2231 1378 2169 
L 1441 2663 
Q 1497 2656 1531 2656 
Q 1891 2656 2178 2843 
Q 2466 3031 2466 3422 
Q 2466 3731 2256 3934 
Q 2047 4138 1716 4138 
Q 1388 4138 1169 3931 
Q 950 3725 888 3313 
L 325 3413 
Q 428 3978 793 4289 
Q 1159 4600 1703 4600 
Q 2078 4600 2393 4439 
Q 2709 4278 2876 4000 
Q 3044 3722 3044 3409 
Q 3044 3113 2884 2869 
Q 2725 2625 2413 2481 
Q 2819 2388 3044 2092 
Q 3269 1797 3269 1353 
Q 3269 753 2831 336 
Q 2394 -81 1725 -81 
Q 1122 -81 723 278 
Q 325 638 269 1209 
z
" transform="scale(0.015625)"/>
       </defs>
       <use xlink:href="#ArialMT-33"/>
      </g>
     </g>
    </g>
    <g id="xtick_3">
     <g id="line2d_3">
      <path d="M 96.958594 284.4 
L 96.958594 7.2 
" clip-path="url(#p0a17f5d9e8)" style="fill: none; stroke: #ffffff; stroke-linecap: round"/>
     </g>
     <g id="text_3">
      <!-- 4 -->
      <g style="fill: #262626" transform="translate(93.900078 301.773594) scale(0.11 -0.11)">
       <defs>
        <path id="ArialMT-34" d="M 2069 0 
L 2069 1097 
L 81 1097 
L 81 1613 
L 2172 4581 
L 2631 4581 
L 2631 1613 
L 3250 1613 
L 3250 1097 
L 2631 1097 
L 2631 0 
L 2069 0 
z
M 2069 1613 
L 2069 3678 
L 634 1613 
L 2069 1613 
z
" transform="scale(0.015625)"/>
       </defs>
       <use xlink:href="#ArialMT-34"/>
      </g>
     </g>
    </g>
    <g id="xtick_4">
     <g id="line2d_4">
      <path d="M 118.755469 284.4 
L 118.755469 7.2 
" clip-path="url(#p0a17f5d9e8)" style="fill: none; stroke: #ffffff; stroke-linecap: round"/>
     </g>
     <g id="text_4">
      <!-- 5 -->
      <g style="fill: #262626" transform="translate(115.696953 301.773594) scale(0.11 -0.11)">
       <defs>
        <path id="ArialMT-35" d="M 266 1200 
L 856 1250 
Q 922 819 1161 601 
Q 1400 384 1738 384 
Q 2144 384 2425 690 
Q 2706 997 2706 1503 
Q 2706 1984 2436 2262 
Q 2166 2541 1728 2541 
Q 1456 2541 1237 2417 
Q 1019 2294 894 2097 
L 366 2166 
L 809 4519 
L 3088 4519 
L 3088 3981 
L 1259 3981 
L 1013 2750 
Q 1425 3038 1878 3038 
Q 2478 3038 2890 2622 
Q 3303 2206 3303 1553 
Q 3303 931 2941 478 
Q 2500 -78 1738 -78 
Q 1113 -78 717 272 
Q 322 622 266 1200 
z
" transform="scale(0.015625)"/>
       </defs>
       <use xlink:href="#ArialMT-35"/>
      </g>
     </g>
    </g>
    <g id="xtick_5">
     <g id="line2d_5">
      <path d="M 140.552344 284.4 
L 140.552344 7.2 
" clip-path="url(#p0a17f5d9e8)" style="fill: none; stroke: #ffffff; stroke-linecap: round"/>
     </g>
     <g id="text_5">
      <!-- 6 -->
      <g style="fill: #262626" transform="translate(137.493828 301.773594) scale(0.11 -0.11)">
       <defs>
        <path id="ArialMT-36" d="M 3184 3459 
L 2625 3416 
Q 2550 3747 2413 3897 
Q 2184 4138 1850 4138 
Q 1581 4138 1378 3988 
Q 1113 3794 959 3422 
Q 806 3050 800 2363 
Q 1003 2672 1297 2822 
Q 1591 2972 1913 2972 
Q 2475 2972 2870 2558 
Q 3266 2144 3266 1488 
Q 3266 1056 3080 686 
Q 2894 316 2569 119 
Q 2244 -78 1831 -78 
Q 1128 -78 684 439 
Q 241 956 241 2144 
Q 241 3472 731 4075 
Q 1159 4600 1884 4600 
Q 2425 4600 2770 4297 
Q 3116 3994 3184 3459 
z
M 888 1484 
Q 888 1194 1011 928 
Q 1134 663 1356 523 
Q 1578 384 1822 384 
Q 2178 384 2434 671 
Q 2691 959 2691 1453 
Q 2691 1928 2437 2201 
Q 2184 2475 1800 2475 
Q 1419 2475 1153 2201 
Q 888 1928 888 1484 
z
" transform="scale(0.015625)"/>
       </defs>
       <use xlink:href="#ArialMT-36"/>
      </g>
     </g>
    </g>
    <g id="xtick_6">
     <g id="line2d_6">
      <path d="M 162.349219 284.4 
L 162.349219 7.2 
" clip-path="url(#p0a17f5d9e8)" style="fill: none; stroke: #ffffff; stroke-linecap: round"/>
     </g>
     <g id="text_6">
      <!-- 7 -->
      <g style="fill: #262626" transform="translate(159.290703 301.773594) scale(0.11 -0.11)">
       <defs>
        <path id="ArialMT-37" d="M 303 3981 
L 303 4522 
L 3269 4522 
L 3269 4084 
Q 2831 3619 2401 2847 
Q 1972 2075 1738 1259 
Q 1569 684 1522 0 
L 944 0 
Q 953 541 1156 1306 
Q 1359 2072 1739 2783 
Q 2119 3494 2547 3981 
L 303 3981 
z
" transform="scale(0.015625)"/>
       </defs>
       <use xlink:href="#ArialMT-37"/>
      </g>
     </g>
    </g>
    <g id="xtick_7">
     <g id="line2d_7">
      <path d="M 184.146094 284.4 
L 184.146094 7.2 
" clip-path="url(#p0a17f5d9e8)" style="fill: none; stroke: #ffffff; stroke-linecap: round"/>
     </g>
     <g id="text_7">
      <!-- 8 -->
      <g style="fill: #262626" transform="translate(181.087578 301.773594) scale(0.11 -0.11)">
       <defs>
        <path id="ArialMT-38" d="M 1131 2484 
Q 781 2613 612 2850 
Q 444 3088 444 3419 
Q 444 3919 803 4259 
Q 1163 4600 1759 4600 
Q 2359 4600 2725 4251 
Q 3091 3903 3091 3403 
Q 3091 3084 2923 2848 
Q 2756 2613 2416 2484 
Q 2838 2347 3058 2040 
Q 3278 1734 3278 1309 
Q 3278 722 2862 322 
Q 2447 -78 1769 -78 
Q 1091 -78 675 323 
Q 259 725 259 1325 
Q 259 1772 486 2073 
Q 713 2375 1131 2484 
z
M 1019 3438 
Q 1019 3113 1228 2906 
Q 1438 2700 1772 2700 
Q 2097 2700 2305 2904 
Q 2513 3109 2513 3406 
Q 2513 3716 2298 3927 
Q 2084 4138 1766 4138 
Q 1444 4138 1231 3931 
Q 1019 3725 1019 3438 
z
M 838 1322 
Q 838 1081 952 856 
Q 1066 631 1291 507 
Q 1516 384 1775 384 
Q 2178 384 2440 643 
Q 2703 903 2703 1303 
Q 2703 1709 2433 1975 
Q 2163 2241 1756 2241 
Q 1359 2241 1098 1978 
Q 838 1716 838 1322 
z
" transform="scale(0.015625)"/>
       </defs>
       <use xlink:href="#ArialMT-38"/>
      </g>
     </g>
    </g>
    <g id="xtick_8">
     <g id="line2d_8">
      <path d="M 205.942969 284.4 
L 205.942969 7.2 
" clip-path="url(#p0a17f5d9e8)" style="fill: none; stroke: #ffffff; stroke-linecap: round"/>
     </g>
     <g id="text_8">
      <!-- 9 -->
      <g style="fill: #262626" transform="translate(202.884453 301.773594) scale(0.11 -0.11)">
       <defs>
        <path id="ArialMT-39" d="M 350 1059 
L 891 1109 
Q 959 728 1153 556 
Q 1347 384 1650 384 
Q 1909 384 2104 503 
Q 2300 622 2425 820 
Q 2550 1019 2634 1356 
Q 2719 1694 2719 2044 
Q 2719 2081 2716 2156 
Q 2547 1888 2255 1720 
Q 1963 1553 1622 1553 
Q 1053 1553 659 1965 
Q 266 2378 266 3053 
Q 266 3750 677 4175 
Q 1088 4600 1706 4600 
Q 2153 4600 2523 4359 
Q 2894 4119 3086 3673 
Q 3278 3228 3278 2384 
Q 3278 1506 3087 986 
Q 2897 466 2520 194 
Q 2144 -78 1638 -78 
Q 1100 -78 759 220 
Q 419 519 350 1059 
z
M 2653 3081 
Q 2653 3566 2395 3850 
Q 2138 4134 1775 4134 
Q 1400 4134 1122 3828 
Q 844 3522 844 3034 
Q 844 2597 1108 2323 
Q 1372 2050 1759 2050 
Q 2150 2050 2401 2323 
Q 2653 2597 2653 3081 
z
" transform="scale(0.015625)"/>
       </defs>
       <use xlink:href="#ArialMT-39"/>
      </g>
     </g>
    </g>
    <g id="xtick_9">
     <g id="line2d_9">
      <path d="M 227.739844 284.4 
L 227.739844 7.2 
" clip-path="url(#p0a17f5d9e8)" style="fill: none; stroke: #ffffff; stroke-linecap: round"/>
     </g>
     <g id="text_9">
      <!-- 10 -->
      <g style="fill: #262626" transform="translate(221.622813 301.773594) scale(0.11 -0.11)">
       <defs>
        <path id="ArialMT-31" d="M 2384 0 
L 1822 0 
L 1822 3584 
Q 1619 3391 1289 3197 
Q 959 3003 697 2906 
L 697 3450 
Q 1169 3672 1522 3987 
Q 1875 4303 2022 4600 
L 2384 4600 
L 2384 0 
z
" transform="scale(0.015625)"/>
        <path id="ArialMT-30" d="M 266 2259 
Q 266 3072 433 3567 
Q 600 4063 929 4331 
Q 1259 4600 1759 4600 
Q 2128 4600 2406 4451 
Q 2684 4303 2865 4023 
Q 3047 3744 3150 3342 
Q 3253 2941 3253 2259 
Q 3253 1453 3087 958 
Q 2922 463 2592 192 
Q 2263 -78 1759 -78 
Q 1097 -78 719 397 
Q 266 969 266 2259 
z
M 844 2259 
Q 844 1131 1108 757 
Q 1372 384 1759 384 
Q 2147 384 2411 759 
Q 2675 1134 2675 2259 
Q 2675 3391 2411 3762 
Q 2147 4134 1753 4134 
Q 1366 4134 1134 3806 
Q 844 3388 844 2259 
z
" transform="scale(0.015625)"/>
       </defs>
       <use xlink:href="#ArialMT-31"/>
       <use xlink:href="#ArialMT-30" x="55.615234"/>
      </g>
     </g>
    </g>
    <g id="xtick_10">
     <g id="line2d_10">
      <path d="M 249.536719 284.4 
L 249.536719 7.2 
" clip-path="url(#p0a17f5d9e8)" style="fill: none; stroke: #ffffff; stroke-linecap: round"/>
     </g>
     <g id="text_10">
      <!-- 11 -->
      <g style="fill: #262626" transform="translate(243.825313 301.773594) scale(0.11 -0.11)">
       <use xlink:href="#ArialMT-31"/>
       <use xlink:href="#ArialMT-31" x="48.240234"/>
      </g>
     </g>
    </g>
    <g id="xtick_11">
     <g id="line2d_11">
      <path d="M 271.333594 284.4 
L 271.333594 7.2 
" clip-path="url(#p0a17f5d9e8)" style="fill: none; stroke: #ffffff; stroke-linecap: round"/>
     </g>
     <g id="text_11">
      <!-- 12 -->
      <g style="fill: #262626" transform="translate(265.216563 301.773594) scale(0.11 -0.11)">
       <use xlink:href="#ArialMT-31"/>
       <use xlink:href="#ArialMT-32" x="55.615234"/>
      </g>
     </g>
    </g>
    <g id="xtick_12">
     <g id="line2d_12">
      <path d="M 293.130469 284.4 
L 293.130469 7.2 
" clip-path="url(#p0a17f5d9e8)" style="fill: none; stroke: #ffffff; stroke-linecap: round"/>
     </g>
     <g id="text_12">
      <!-- 13 -->
      <g style="fill: #262626" transform="translate(287.013438 301.773594) scale(0.11 -0.11)">
       <use xlink:href="#ArialMT-31"/>
       <use xlink:href="#ArialMT-33" x="55.615234"/>
      </g>
     </g>
    </g>
    <g id="xtick_13">
     <g id="line2d_13">
      <path d="M 314.927344 284.4 
L 314.927344 7.2 
" clip-path="url(#p0a17f5d9e8)" style="fill: none; stroke: #ffffff; stroke-linecap: round"/>
     </g>
     <g id="text_13">
      <!-- 14 -->
      <g style="fill: #262626" transform="translate(308.810313 301.773594) scale(0.11 -0.11)">
       <use xlink:href="#ArialMT-31"/>
       <use xlink:href="#ArialMT-34" x="55.615234"/>
      </g>
     </g>
    </g>
    <g id="xtick_14">
     <g id="line2d_14">
      <path d="M 336.724219 284.4 
L 336.724219 7.2 
" clip-path="url(#p0a17f5d9e8)" style="fill: none; stroke: #ffffff; stroke-linecap: round"/>
     </g>
     <g id="text_14">
      <!-- 15 -->
      <g style="fill: #262626" transform="translate(330.607188 301.773594) scale(0.11 -0.11)">
       <use xlink:href="#ArialMT-31"/>
       <use xlink:href="#ArialMT-35" x="55.615234"/>
      </g>
     </g>
    </g>
    <g id="xtick_15">
     <g id="line2d_15">
      <path d="M 358.521094 284.4 
L 358.521094 7.2 
" clip-path="url(#p0a17f5d9e8)" style="fill: none; stroke: #ffffff; stroke-linecap: round"/>
     </g>
     <g id="text_15">
      <!-- 16 -->
      <g style="fill: #262626" transform="translate(352.404063 301.773594) scale(0.11 -0.11)">
       <use xlink:href="#ArialMT-31"/>
       <use xlink:href="#ArialMT-36" x="55.615234"/>
      </g>
     </g>
    </g>
    <g id="xtick_16">
     <g id="line2d_16">
      <path d="M 380.317969 284.4 
L 380.317969 7.2 
" clip-path="url(#p0a17f5d9e8)" style="fill: none; stroke: #ffffff; stroke-linecap: round"/>
     </g>
     <g id="text_16">
      <!-- 17 -->
      <g style="fill: #262626" transform="translate(374.200938 301.773594) scale(0.11 -0.11)">
       <use xlink:href="#ArialMT-31"/>
       <use xlink:href="#ArialMT-37" x="55.615234"/>
      </g>
     </g>
    </g>
    <g id="xtick_17">
     <g id="line2d_17">
      <path d="M 402.114844 284.4 
L 402.114844 7.2 
" clip-path="url(#p0a17f5d9e8)" style="fill: none; stroke: #ffffff; stroke-linecap: round"/>
     </g>
     <g id="text_17">
      <!-- 18 -->
      <g style="fill: #262626" transform="translate(395.997813 301.773594) scale(0.11 -0.11)">
       <use xlink:href="#ArialMT-31"/>
       <use xlink:href="#ArialMT-38" x="55.615234"/>
      </g>
     </g>
    </g>
    <g id="xtick_18">
     <g id="line2d_18">
      <path d="M 423.911719 284.4 
L 423.911719 7.2 
" clip-path="url(#p0a17f5d9e8)" style="fill: none; stroke: #ffffff; stroke-linecap: round"/>
     </g>
     <g id="text_18">
      <!-- 19 -->
      <g style="fill: #262626" transform="translate(417.794688 301.773594) scale(0.11 -0.11)">
       <use xlink:href="#ArialMT-31"/>
       <use xlink:href="#ArialMT-39" x="55.615234"/>
      </g>
     </g>
    </g>
    <g id="xtick_19">
     <g id="line2d_19">
      <path d="M 445.708594 284.4 
L 445.708594 7.2 
" clip-path="url(#p0a17f5d9e8)" style="fill: none; stroke: #ffffff; stroke-linecap: round"/>
     </g>
     <g id="text_19">
      <!-- 20 -->
      <g style="fill: #262626" transform="translate(439.591563 301.773594) scale(0.11 -0.11)">
       <use xlink:href="#ArialMT-32"/>
       <use xlink:href="#ArialMT-30" x="55.615234"/>
      </g>
     </g>
    </g>
    <g id="xtick_20">
     <g id="line2d_20">
      <path d="M 467.505469 284.4 
L 467.505469 7.2 
" clip-path="url(#p0a17f5d9e8)" style="fill: none; stroke: #ffffff; stroke-linecap: round"/>
     </g>
     <g id="text_20">
      <!-- 21 -->
      <g style="fill: #262626" transform="translate(461.388438 301.773594) scale(0.11 -0.11)">
       <use xlink:href="#ArialMT-32"/>
       <use xlink:href="#ArialMT-31" x="55.615234"/>
      </g>
     </g>
    </g>
    <g id="xtick_21">
     <g id="line2d_21">
      <path d="M 489.302344 284.4 
L 489.302344 7.2 
" clip-path="url(#p0a17f5d9e8)" style="fill: none; stroke: #ffffff; stroke-linecap: round"/>
     </g>
     <g id="text_21">
      <!-- 22 -->
      <g style="fill: #262626" transform="translate(483.185313 301.773594) scale(0.11 -0.11)">
       <use xlink:href="#ArialMT-32"/>
       <use xlink:href="#ArialMT-32" x="55.615234"/>
      </g>
     </g>
    </g>
    <g id="xtick_22">
     <g id="line2d_22">
      <path d="M 511.099219 284.4 
L 511.099219 7.2 
" clip-path="url(#p0a17f5d9e8)" style="fill: none; stroke: #ffffff; stroke-linecap: round"/>
     </g>
     <g id="text_22">
      <!-- 23 -->
      <g style="fill: #262626" transform="translate(504.982188 301.773594) scale(0.11 -0.11)">
       <use xlink:href="#ArialMT-32"/>
       <use xlink:href="#ArialMT-33" x="55.615234"/>
      </g>
     </g>
    </g>
    <g id="xtick_23">
     <g id="line2d_23">
      <path d="M 532.896094 284.4 
L 532.896094 7.2 
" clip-path="url(#p0a17f5d9e8)" style="fill: none; stroke: #ffffff; stroke-linecap: round"/>
     </g>
     <g id="text_23">
      <!-- 24 -->
      <g style="fill: #262626" transform="translate(526.779063 301.773594) scale(0.11 -0.11)">
       <use xlink:href="#ArialMT-32"/>
       <use xlink:href="#ArialMT-34" x="55.615234"/>
      </g>
     </g>
    </g>
    <g id="xtick_24">
     <g id="line2d_24">
      <path d="M 554.692969 284.4 
L 554.692969 7.2 
" clip-path="url(#p0a17f5d9e8)" style="fill: none; stroke: #ffffff; stroke-linecap: round"/>
     </g>
     <g id="text_24">
      <!-- 25 -->
      <g style="fill: #262626" transform="translate(548.575938 301.773594) scale(0.11 -0.11)">
       <use xlink:href="#ArialMT-32"/>
       <use xlink:href="#ArialMT-35" x="55.615234"/>
      </g>
     </g>
    </g>
    <g id="xtick_25">
     <g id="line2d_25">
      <path d="M 576.489844 284.4 
L 576.489844 7.2 
" clip-path="url(#p0a17f5d9e8)" style="fill: none; stroke: #ffffff; stroke-linecap: round"/>
     </g>
     <g id="text_25">
      <!-- 26 -->
      <g style="fill: #262626" transform="translate(570.372813 301.773594) scale(0.11 -0.11)">
       <use xlink:href="#ArialMT-32"/>
       <use xlink:href="#ArialMT-36" x="55.615234"/>
      </g>
     </g>
    </g>
    <g id="xtick_26">
     <g id="line2d_26">
      <path d="M 598.286719 284.4 
L 598.286719 7.2 
" clip-path="url(#p0a17f5d9e8)" style="fill: none; stroke: #ffffff; stroke-linecap: round"/>
     </g>
     <g id="text_26">
      <!-- 27 -->
      <g style="fill: #262626" transform="translate(592.169688 301.773594) scale(0.11 -0.11)">
       <use xlink:href="#ArialMT-32"/>
       <use xlink:href="#ArialMT-37" x="55.615234"/>
      </g>
     </g>
    </g>
    <g id="xtick_27">
     <g id="line2d_27">
      <path d="M 620.083594 284.4 
L 620.083594 7.2 
" clip-path="url(#p0a17f5d9e8)" style="fill: none; stroke: #ffffff; stroke-linecap: round"/>
     </g>
     <g id="text_27">
      <!-- 28 -->
      <g style="fill: #262626" transform="translate(613.966563 301.773594) scale(0.11 -0.11)">
       <use xlink:href="#ArialMT-32"/>
       <use xlink:href="#ArialMT-38" x="55.615234"/>
      </g>
     </g>
    </g>
    <g id="xtick_28">
     <g id="line2d_28">
      <path d="M 641.880469 284.4 
L 641.880469 7.2 
" clip-path="url(#p0a17f5d9e8)" style="fill: none; stroke: #ffffff; stroke-linecap: round"/>
     </g>
     <g id="text_28">
      <!-- 29 -->
      <g style="fill: #262626" transform="translate(635.763438 301.773594) scale(0.11 -0.11)">
       <use xlink:href="#ArialMT-32"/>
       <use xlink:href="#ArialMT-39" x="55.615234"/>
      </g>
     </g>
    </g>
    <g id="xtick_29">
     <g id="line2d_29">
      <path d="M 663.677344 284.4 
L 663.677344 7.2 
" clip-path="url(#p0a17f5d9e8)" style="fill: none; stroke: #ffffff; stroke-linecap: round"/>
     </g>
     <g id="text_29">
      <!-- 30 -->
      <g style="fill: #262626" transform="translate(657.560313 301.773594) scale(0.11 -0.11)">
       <use xlink:href="#ArialMT-33"/>
       <use xlink:href="#ArialMT-30" x="55.615234"/>
      </g>
     </g>
    </g>
    <g id="xtick_30">
     <g id="line2d_30">
      <path d="M 685.474219 284.4 
L 685.474219 7.2 
" clip-path="url(#p0a17f5d9e8)" style="fill: none; stroke: #ffffff; stroke-linecap: round"/>
     </g>
     <g id="text_30">
      <!-- 31 -->
      <g style="fill: #262626" transform="translate(679.357188 301.773594) scale(0.11 -0.11)">
       <use xlink:href="#ArialMT-33"/>
       <use xlink:href="#ArialMT-31" x="55.615234"/>
      </g>
     </g>
    </g>
    <g id="xtick_31">
     <g id="line2d_31">
      <path d="M 707.271094 284.4 
L 707.271094 7.2 
" clip-path="url(#p0a17f5d9e8)" style="fill: none; stroke: #ffffff; stroke-linecap: round"/>
     </g>
     <g id="text_31">
      <!-- 32 -->
      <g style="fill: #262626" transform="translate(701.154063 301.773594) scale(0.11 -0.11)">
       <use xlink:href="#ArialMT-33"/>
       <use xlink:href="#ArialMT-32" x="55.615234"/>
      </g>
     </g>
    </g>
    <g id="xtick_32">
     <g id="line2d_32">
      <path d="M 729.067969 284.4 
L 729.067969 7.2 
" clip-path="url(#p0a17f5d9e8)" style="fill: none; stroke: #ffffff; stroke-linecap: round"/>
     </g>
     <g id="text_32">
      <!-- 33 -->
      <g style="fill: #262626" transform="translate(722.950938 301.773594) scale(0.11 -0.11)">
       <use xlink:href="#ArialMT-33"/>
       <use xlink:href="#ArialMT-33" x="55.615234"/>
      </g>
     </g>
    </g>
    <g id="xtick_33">
     <g id="line2d_33">
      <path d="M 750.864844 284.4 
L 750.864844 7.2 
" clip-path="url(#p0a17f5d9e8)" style="fill: none; stroke: #ffffff; stroke-linecap: round"/>
     </g>
     <g id="text_33">
      <!-- 34 -->
      <g style="fill: #262626" transform="translate(744.747813 301.773594) scale(0.11 -0.11)">
       <use xlink:href="#ArialMT-33"/>
       <use xlink:href="#ArialMT-34" x="55.615234"/>
      </g>
     </g>
    </g>
    <g id="xtick_34">
     <g id="line2d_34">
      <path d="M 772.661719 284.4 
L 772.661719 7.2 
" clip-path="url(#p0a17f5d9e8)" style="fill: none; stroke: #ffffff; stroke-linecap: round"/>
     </g>
     <g id="text_34">
      <!-- 35 -->
      <g style="fill: #262626" transform="translate(766.544688 301.773594) scale(0.11 -0.11)">
       <use xlink:href="#ArialMT-33"/>
       <use xlink:href="#ArialMT-35" x="55.615234"/>
      </g>
     </g>
    </g>
    <g id="xtick_35">
     <g id="line2d_35">
      <path d="M 794.458594 284.4 
L 794.458594 7.2 
" clip-path="url(#p0a17f5d9e8)" style="fill: none; stroke: #ffffff; stroke-linecap: round"/>
     </g>
     <g id="text_35">
      <!-- 36 -->
      <g style="fill: #262626" transform="translate(788.341563 301.773594) scale(0.11 -0.11)">
       <use xlink:href="#ArialMT-33"/>
       <use xlink:href="#ArialMT-36" x="55.615234"/>
      </g>
     </g>
    </g>
    <g id="xtick_36">
     <g id="line2d_36">
      <path d="M 816.255469 284.4 
L 816.255469 7.2 
" clip-path="url(#p0a17f5d9e8)" style="fill: none; stroke: #ffffff; stroke-linecap: round"/>
     </g>
     <g id="text_36">
      <!-- 37 -->
      <g style="fill: #262626" transform="translate(810.138438 301.773594) scale(0.11 -0.11)">
       <use xlink:href="#ArialMT-33"/>
       <use xlink:href="#ArialMT-37" x="55.615234"/>
      </g>
     </g>
    </g>
    <g id="xtick_37">
     <g id="line2d_37">
      <path d="M 838.052344 284.4 
L 838.052344 7.2 
" clip-path="url(#p0a17f5d9e8)" style="fill: none; stroke: #ffffff; stroke-linecap: round"/>
     </g>
     <g id="text_37">
      <!-- 38 -->
      <g style="fill: #262626" transform="translate(831.935313 301.773594) scale(0.11 -0.11)">
       <use xlink:href="#ArialMT-33"/>
       <use xlink:href="#ArialMT-38" x="55.615234"/>
      </g>
     </g>
    </g>
    <g id="xtick_38">
     <g id="line2d_38">
      <path d="M 859.849219 284.4 
L 859.849219 7.2 
" clip-path="url(#p0a17f5d9e8)" style="fill: none; stroke: #ffffff; stroke-linecap: round"/>
     </g>
     <g id="text_38">
      <!-- 39 -->
      <g style="fill: #262626" transform="translate(853.732188 301.773594) scale(0.11 -0.11)">
       <use xlink:href="#ArialMT-33"/>
       <use xlink:href="#ArialMT-39" x="55.615234"/>
      </g>
     </g>
    </g>
   </g>
   <g id="matplotlib.axis_2">
    <g id="ytick_1">
     <g id="line2d_39">
      <path d="M 38.107031 284.4 
L 875.107031 284.4 
" clip-path="url(#p0a17f5d9e8)" style="fill: none; stroke: #ffffff; stroke-linecap: round"/>
     </g>
     <g id="text_39">
      <!-- 0.00 -->
      <g style="fill: #262626" transform="translate(7.2 288.336797) scale(0.11 -0.11)">
       <defs>
        <path id="ArialMT-2e" d="M 581 0 
L 581 641 
L 1222 641 
L 1222 0 
L 581 0 
z
" transform="scale(0.015625)"/>
       </defs>
       <use xlink:href="#ArialMT-30"/>
       <use xlink:href="#ArialMT-2e" x="55.615234"/>
       <use xlink:href="#ArialMT-30" x="83.398438"/>
       <use xlink:href="#ArialMT-30" x="139.013672"/>
      </g>
     </g>
    </g>
    <g id="ytick_2">
     <g id="line2d_40">
      <path d="M 38.107031 237.133747 
L 875.107031 237.133747 
" clip-path="url(#p0a17f5d9e8)" style="fill: none; stroke: #ffffff; stroke-linecap: round"/>
     </g>
     <g id="text_40">
      <!-- 0.05 -->
      <g style="fill: #262626" transform="translate(7.2 241.070544) scale(0.11 -0.11)">
       <use xlink:href="#ArialMT-30"/>
       <use xlink:href="#ArialMT-2e" x="55.615234"/>
       <use xlink:href="#ArialMT-30" x="83.398438"/>
       <use xlink:href="#ArialMT-35" x="139.013672"/>
      </g>
     </g>
    </g>
    <g id="ytick_3">
     <g id="line2d_41">
      <path d="M 38.107031 189.867494 
L 875.107031 189.867494 
" clip-path="url(#p0a17f5d9e8)" style="fill: none; stroke: #ffffff; stroke-linecap: round"/>
     </g>
     <g id="text_41">
      <!-- 0.10 -->
      <g style="fill: #262626" transform="translate(7.2 193.80429) scale(0.11 -0.11)">
       <use xlink:href="#ArialMT-30"/>
       <use xlink:href="#ArialMT-2e" x="55.615234"/>
       <use xlink:href="#ArialMT-31" x="83.398438"/>
       <use xlink:href="#ArialMT-30" x="139.013672"/>
      </g>
     </g>
    </g>
    <g id="ytick_4">
     <g id="line2d_42">
      <path d="M 38.107031 142.60124 
L 875.107031 142.60124 
" clip-path="url(#p0a17f5d9e8)" style="fill: none; stroke: #ffffff; stroke-linecap: round"/>
     </g>
     <g id="text_42">
      <!-- 0.15 -->
      <g style="fill: #262626" transform="translate(7.2 146.538037) scale(0.11 -0.11)">
       <use xlink:href="#ArialMT-30"/>
       <use xlink:href="#ArialMT-2e" x="55.615234"/>
       <use xlink:href="#ArialMT-31" x="83.398438"/>
       <use xlink:href="#ArialMT-35" x="139.013672"/>
      </g>
     </g>
    </g>
    <g id="ytick_5">
     <g id="line2d_43">
      <path d="M 38.107031 95.334987 
L 875.107031 95.334987 
" clip-path="url(#p0a17f5d9e8)" style="fill: none; stroke: #ffffff; stroke-linecap: round"/>
     </g>
     <g id="text_43">
      <!-- 0.20 -->
      <g style="fill: #262626" transform="translate(7.2 99.271784) scale(0.11 -0.11)">
       <use xlink:href="#ArialMT-30"/>
       <use xlink:href="#ArialMT-2e" x="55.615234"/>
       <use xlink:href="#ArialMT-32" x="83.398438"/>
       <use xlink:href="#ArialMT-30" x="139.013672"/>
      </g>
     </g>
    </g>
    <g id="ytick_6">
     <g id="line2d_44">
      <path d="M 38.107031 48.068734 
L 875.107031 48.068734 
" clip-path="url(#p0a17f5d9e8)" style="fill: none; stroke: #ffffff; stroke-linecap: round"/>
     </g>
     <g id="text_44">
      <!-- 0.25 -->
      <g style="fill: #262626" transform="translate(7.2 52.005531) scale(0.11 -0.11)">
       <use xlink:href="#ArialMT-30"/>
       <use xlink:href="#ArialMT-2e" x="55.615234"/>
       <use xlink:href="#ArialMT-32" x="83.398438"/>
       <use xlink:href="#ArialMT-35" x="139.013672"/>
      </g>
     </g>
    </g>
   </g>
   <g id="patch_3">
    <path d="M 43.55625 284.4 
L 53.364844 284.4 
L 53.364844 81.703148 
L 43.55625 81.703148 
z
" clip-path="url(#p0a17f5d9e8)" style="fill: #4c72b0; stroke: #ffffff; stroke-linejoin: miter"/>
   </g>
   <g id="patch_4">
    <path d="M 65.353125 284.4 
L 75.161719 284.4 
L 75.161719 153.217729 
L 65.353125 153.217729 
z
" clip-path="url(#p0a17f5d9e8)" style="fill: #4c72b0; stroke: #ffffff; stroke-linejoin: miter"/>
   </g>
   <g id="patch_5">
    <path d="M 87.15 284.4 
L 96.958594 284.4 
L 96.958594 189.559944 
L 87.15 189.559944 
z
" clip-path="url(#p0a17f5d9e8)" style="fill: #4c72b0; stroke: #ffffff; stroke-linejoin: miter"/>
   </g>
   <g id="patch_6">
    <path d="M 108.946875 284.4 
L 118.755469 284.4 
L 118.755469 213.470547 
L 108.946875 213.470547 
z
" clip-path="url(#p0a17f5d9e8)" style="fill: #4c72b0; stroke: #ffffff; stroke-linejoin: miter"/>
   </g>
   <g id="patch_7">
    <path d="M 130.74375 284.4 
L 140.552344 284.4 
L 140.552344 228.346125 
L 130.74375 228.346125 
z
" clip-path="url(#p0a17f5d9e8)" style="fill: #4c72b0; stroke: #ffffff; stroke-linejoin: miter"/>
   </g>
   <g id="patch_8">
    <path d="M 152.540625 284.4 
L 162.349219 284.4 
L 162.349219 239.25681 
L 152.540625 239.25681 
z
" clip-path="url(#p0a17f5d9e8)" style="fill: #4c72b0; stroke: #ffffff; stroke-linejoin: miter"/>
   </g>
   <g id="patch_9">
    <path d="M 174.3375 284.4 
L 184.146094 284.4 
L 184.146094 246.996346 
L 174.3375 246.996346 
z
" clip-path="url(#p0a17f5d9e8)" style="fill: #4c72b0; stroke: #ffffff; stroke-linejoin: miter"/>
   </g>
   <g id="patch_10">
    <path d="M 196.134375 284.4 
L 205.942969 284.4 
L 205.942969 252.617882 
L 196.134375 252.617882 
z
" clip-path="url(#p0a17f5d9e8)" style="fill: #4c72b0; stroke: #ffffff; stroke-linejoin: miter"/>
   </g>
   <g id="patch_11">
    <path d="M 217.93125 284.4 
L 227.739844 284.4 
L 227.739844 257.278426 
L 217.93125 257.278426 
z
" clip-path="url(#p0a17f5d9e8)" style="fill: #4c72b0; stroke: #ffffff; stroke-linejoin: miter"/>
   </g>
   <g id="patch_12">
    <path d="M 239.728125 284.4 
L 249.536719 284.4 
L 249.536719 260.802928 
L 239.728125 260.802928 
z
" clip-path="url(#p0a17f5d9e8)" style="fill: #4c72b0; stroke: #ffffff; stroke-linejoin: miter"/>
   </g>
   <g id="patch_13">
    <path d="M 261.525 284.4 
L 271.333594 284.4 
L 271.333594 263.665504 
L 261.525 263.665504 
z
" clip-path="url(#p0a17f5d9e8)" style="fill: #4c72b0; stroke: #ffffff; stroke-linejoin: miter"/>
   </g>
   <g id="patch_14">
    <path d="M 283.321875 284.4 
L 293.130469 284.4 
L 293.130469 266.046731 
L 283.321875 266.046731 
z
" clip-path="url(#p0a17f5d9e8)" style="fill: #4c72b0; stroke: #ffffff; stroke-linejoin: miter"/>
   </g>
   <g id="patch_15">
    <path d="M 305.11875 284.4 
L 314.927344 284.4 
L 314.927344 267.923447 
L 305.11875 267.923447 
z
" clip-path="url(#p0a17f5d9e8)" style="fill: #4c72b0; stroke: #ffffff; stroke-linejoin: miter"/>
   </g>
   <g id="patch_16">
    <path d="M 326.915625 284.4 
L 336.724219 284.4 
L 336.724219 269.572533 
L 326.915625 269.572533 
z
" clip-path="url(#p0a17f5d9e8)" style="fill: #4c72b0; stroke: #ffffff; stroke-linejoin: miter"/>
   </g>
   <g id="patch_17">
    <path d="M 348.7125 284.4 
L 358.521094 284.4 
L 358.521094 271.022269 
L 348.7125 271.022269 
z
" clip-path="url(#p0a17f5d9e8)" style="fill: #4c72b0; stroke: #ffffff; stroke-linejoin: miter"/>
   </g>
   <g id="patch_18">
    <path d="M 370.509375 284.4 
L 380.317969 284.4 
L 380.317969 272.249493 
L 370.509375 272.249493 
z
" clip-path="url(#p0a17f5d9e8)" style="fill: #4c72b0; stroke: #ffffff; stroke-linejoin: miter"/>
   </g>
   <g id="patch_19">
    <path d="M 392.30625 284.4 
L 402.114844 284.4 
L 402.114844 273.305487 
L 392.30625 273.305487 
z
" clip-path="url(#p0a17f5d9e8)" style="fill: #4c72b0; stroke: #ffffff; stroke-linejoin: miter"/>
   </g>
   <g id="patch_20">
    <path d="M 414.103125 284.4 
L 423.911719 284.4 
L 423.911719 274.22877 
L 414.103125 274.22877 
z
" clip-path="url(#p0a17f5d9e8)" style="fill: #4c72b0; stroke: #ffffff; stroke-linejoin: miter"/>
   </g>
   <g id="patch_21">
    <path d="M 435.9 284.4 
L 445.708594 284.4 
L 445.708594 275.002927 
L 435.9 275.002927 
z
" clip-path="url(#p0a17f5d9e8)" style="fill: #4c72b0; stroke: #ffffff; stroke-linejoin: miter"/>
   </g>
   <g id="patch_22">
    <path d="M 457.696875 284.4 
L 467.505469 284.4 
L 467.505469 275.736043 
L 457.696875 275.736043 
z
" clip-path="url(#p0a17f5d9e8)" style="fill: #4c72b0; stroke: #ffffff; stroke-linejoin: miter"/>
   </g>
   <g id="patch_23">
    <path d="M 479.49375 284.4 
L 489.302344 284.4 
L 489.302344 276.346283 
L 479.49375 276.346283 
z
" clip-path="url(#p0a17f5d9e8)" style="fill: #4c72b0; stroke: #ffffff; stroke-linejoin: miter"/>
   </g>
   <g id="patch_24">
    <path d="M 501.290625 284.4 
L 511.099219 284.4 
L 511.099219 276.925803 
L 501.290625 276.925803 
z
" clip-path="url(#p0a17f5d9e8)" style="fill: #4c72b0; stroke: #ffffff; stroke-linejoin: miter"/>
   </g>
   <g id="patch_25">
    <path d="M 523.0875 284.4 
L 532.896094 284.4 
L 532.896094 277.383178 
L 523.0875 277.383178 
z
" clip-path="url(#p0a17f5d9e8)" style="fill: #4c72b0; stroke: #ffffff; stroke-linejoin: miter"/>
   </g>
   <g id="patch_26">
    <path d="M 544.884375 284.4 
L 554.692969 284.4 
L 554.692969 277.934336 
L 544.884375 277.934336 
z
" clip-path="url(#p0a17f5d9e8)" style="fill: #4c72b0; stroke: #ffffff; stroke-linejoin: miter"/>
   </g>
   <g id="patch_27">
    <path d="M 566.68125 284.4 
L 576.489844 284.4 
L 576.489844 278.280943 
L 566.68125 278.280943 
z
" clip-path="url(#p0a17f5d9e8)" style="fill: #4c72b0; stroke: #ffffff; stroke-linejoin: miter"/>
   </g>
   <g id="patch_28">
    <path d="M 588.478125 284.4 
L 598.286719 284.4 
L 598.286719 278.67883 
L 588.478125 278.67883 
z
" clip-path="url(#p0a17f5d9e8)" style="fill: #4c72b0; stroke: #ffffff; stroke-linejoin: miter"/>
   </g>
   <g id="patch_29">
    <path d="M 610.275 284.4 
L 620.083594 284.4 
L 620.083594 279.036083 
L 610.275 279.036083 
z
" clip-path="url(#p0a17f5d9e8)" style="fill: #4c72b0; stroke: #ffffff; stroke-linejoin: miter"/>
   </g>
   <g id="patch_30">
    <path d="M 632.071875 284.4 
L 641.880469 284.4 
L 641.880469 279.385535 
L 632.071875 279.385535 
z
" clip-path="url(#p0a17f5d9e8)" style="fill: #4c72b0; stroke: #ffffff; stroke-linejoin: miter"/>
   </g>
   <g id="patch_31">
    <path d="M 653.86875 284.4 
L 663.677344 284.4 
L 663.677344 279.641447 
L 653.86875 279.641447 
z
" clip-path="url(#p0a17f5d9e8)" style="fill: #4c72b0; stroke: #ffffff; stroke-linejoin: miter"/>
   </g>
   <g id="patch_32">
    <path d="M 675.665625 284.4 
L 685.474219 284.4 
L 685.474219 279.857132 
L 675.665625 279.857132 
z
" clip-path="url(#p0a17f5d9e8)" style="fill: #4c72b0; stroke: #ffffff; stroke-linejoin: miter"/>
   </g>
   <g id="patch_33">
    <path d="M 697.4625 284.4 
L 707.271094 284.4 
L 707.271094 280.120846 
L 697.4625 280.120846 
z
" clip-path="url(#p0a17f5d9e8)" style="fill: #4c72b0; stroke: #ffffff; stroke-linejoin: miter"/>
   </g>
   <g id="patch_34">
    <path d="M 719.259375 284.4 
L 729.067969 284.4 
L 729.067969 280.338481 
L 719.259375 280.338481 
z
" clip-path="url(#p0a17f5d9e8)" style="fill: #4c72b0; stroke: #ffffff; stroke-linejoin: miter"/>
   </g>
   <g id="patch_35">
    <path d="M 741.05625 284.4 
L 750.864844 284.4 
L 750.864844 280.542138 
L 741.05625 280.542138 
z
" clip-path="url(#p0a17f5d9e8)" style="fill: #4c72b0; stroke: #ffffff; stroke-linejoin: miter"/>
   </g>
   <g id="patch_36">
    <path d="M 762.853125 284.4 
L 772.661719 284.4 
L 772.661719 280.745551 
L 762.853125 280.745551 
z
" clip-path="url(#p0a17f5d9e8)" style="fill: #4c72b0; stroke: #ffffff; stroke-linejoin: miter"/>
   </g>
   <g id="patch_37">
    <path d="M 784.65 284.4 
L 794.458594 284.4 
L 794.458594 280.915888 
L 784.65 280.915888 
z
" clip-path="url(#p0a17f5d9e8)" style="fill: #4c72b0; stroke: #ffffff; stroke-linejoin: miter"/>
   </g>
   <g id="patch_38">
    <path d="M 806.446875 284.4 
L 816.255469 284.4 
L 816.255469 281.110687 
L 806.446875 281.110687 
z
" clip-path="url(#p0a17f5d9e8)" style="fill: #4c72b0; stroke: #ffffff; stroke-linejoin: miter"/>
   </g>
   <g id="patch_39">
    <path d="M 828.24375 284.4 
L 838.052344 284.4 
L 838.052344 281.228444 
L 828.24375 281.228444 
z
" clip-path="url(#p0a17f5d9e8)" style="fill: #4c72b0; stroke: #ffffff; stroke-linejoin: miter"/>
   </g>
   <g id="patch_40">
    <path d="M 850.040625 284.4 
L 859.849219 284.4 
L 859.849219 281.400244 
L 850.040625 281.400244 
z
" clip-path="url(#p0a17f5d9e8)" style="fill: #4c72b0; stroke: #ffffff; stroke-linejoin: miter"/>
   </g>
   <g id="patch_41">
    <path d="M 53.364844 284.4 
L 63.173438 284.4 
L 63.173438 20.4 
L 53.364844 20.4 
z
" clip-path="url(#p0a17f5d9e8)" style="fill: #dd8452; stroke: #ffffff; stroke-linejoin: miter"/>
   </g>
   <g id="patch_42">
    <path d="M 75.161719 284.4 
L 84.970313 284.4 
L 84.970313 128.805873 
L 75.161719 128.805873 
z
" clip-path="url(#p0a17f5d9e8)" style="fill: #dd8452; stroke: #ffffff; stroke-linejoin: miter"/>
   </g>
   <g id="patch_43">
    <path d="M 96.958594 284.4 
L 106.767188 284.4 
L 106.767188 179.652293 
L 96.958594 179.652293 
z
" clip-path="url(#p0a17f5d9e8)" style="fill: #dd8452; stroke: #ffffff; stroke-linejoin: miter"/>
   </g>
   <g id="patch_44">
    <path d="M 118.755469 284.4 
L 128.564063 284.4 
L 128.564063 210.633371 
L 118.755469 210.633371 
z
" clip-path="url(#p0a17f5d9e8)" style="fill: #dd8452; stroke: #ffffff; stroke-linejoin: miter"/>
   </g>
   <g id="patch_45">
    <path d="M 140.552344 284.4 
L 150.360938 284.4 
L 150.360938 228.892817 
L 140.552344 228.892817 
z
" clip-path="url(#p0a17f5d9e8)" style="fill: #dd8452; stroke: #ffffff; stroke-linejoin: miter"/>
   </g>
   <g id="patch_46">
    <path d="M 162.349219 284.4 
L 172.157813 284.4 
L 172.157813 241.472632 
L 162.349219 241.472632 
z
" clip-path="url(#p0a17f5d9e8)" style="fill: #dd8452; stroke: #ffffff; stroke-linejoin: miter"/>
   </g>
   <g id="patch_47">
    <path d="M 184.146094 284.4 
L 193.954688 284.4 
L 193.954688 250.335578 
L 184.146094 250.335578 
z
" clip-path="url(#p0a17f5d9e8)" style="fill: #dd8452; stroke: #ffffff; stroke-linejoin: miter"/>
   </g>
   <g id="patch_48">
    <path d="M 205.942969 284.4 
L 215.751563 284.4 
L 215.751563 256.620835 
L 205.942969 256.620835 
z
" clip-path="url(#p0a17f5d9e8)" style="fill: #dd8452; stroke: #ffffff; stroke-linejoin: miter"/>
   </g>
   <g id="patch_49">
    <path d="M 227.739844 284.4 
L 237.548438 284.4 
L 237.548438 261.461774 
L 227.739844 261.461774 
z
" clip-path="url(#p0a17f5d9e8)" style="fill: #dd8452; stroke: #ffffff; stroke-linejoin: miter"/>
   </g>
   <g id="patch_50">
    <path d="M 249.536719 284.4 
L 259.345313 284.4 
L 259.345313 265.089136 
L 249.536719 265.089136 
z
" clip-path="url(#p0a17f5d9e8)" style="fill: #dd8452; stroke: #ffffff; stroke-linejoin: miter"/>
   </g>
   <g id="patch_51">
    <path d="M 271.333594 284.4 
L 281.142188 284.4 
L 281.142188 267.780161 
L 271.333594 267.780161 
z
" clip-path="url(#p0a17f5d9e8)" style="fill: #dd8452; stroke: #ffffff; stroke-linejoin: miter"/>
   </g>
   <g id="patch_52">
    <path d="M 293.130469 284.4 
L 302.939063 284.4 
L 302.939063 270.135825 
L 293.130469 270.135825 
z
" clip-path="url(#p0a17f5d9e8)" style="fill: #dd8452; stroke: #ffffff; stroke-linejoin: miter"/>
   </g>
   <g id="patch_53">
    <path d="M 314.927344 284.4 
L 324.735938 284.4 
L 324.735938 272.177632 
L 314.927344 272.177632 
z
" clip-path="url(#p0a17f5d9e8)" style="fill: #dd8452; stroke: #ffffff; stroke-linejoin: miter"/>
   </g>
   <g id="patch_54">
    <path d="M 336.724219 284.4 
L 346.532813 284.4 
L 346.532813 273.586497 
L 336.724219 273.586497 
z
" clip-path="url(#p0a17f5d9e8)" style="fill: #dd8452; stroke: #ffffff; stroke-linejoin: miter"/>
   </g>
   <g id="patch_55">
    <path d="M 358.521094 284.4 
L 368.329688 284.4 
L 368.329688 274.863426 
L 358.521094 274.863426 
z
" clip-path="url(#p0a17f5d9e8)" style="fill: #dd8452; stroke: #ffffff; stroke-linejoin: miter"/>
   </g>
   <g id="patch_56">
    <path d="M 380.317969 284.4 
L 390.126563 284.4 
L 390.126563 276.065379 
L 380.317969 276.065379 
z
" clip-path="url(#p0a17f5d9e8)" style="fill: #dd8452; stroke: #ffffff; stroke-linejoin: miter"/>
   </g>
   <g id="patch_57">
    <path d="M 402.114844 284.4 
L 411.923438 284.4 
L 411.923438 276.943013 
L 402.114844 276.943013 
z
" clip-path="url(#p0a17f5d9e8)" style="fill: #dd8452; stroke: #ffffff; stroke-linejoin: miter"/>
   </g>
   <g id="patch_58">
    <path d="M 423.911719 284.4 
L 433.720313 284.4 
L 433.720313 277.790424 
L 423.911719 277.790424 
z
" clip-path="url(#p0a17f5d9e8)" style="fill: #dd8452; stroke: #ffffff; stroke-linejoin: miter"/>
   </g>
   <g id="patch_59">
    <path d="M 445.708594 284.4 
L 455.517188 284.4 
L 455.517188 278.376289 
L 445.708594 278.376289 
z
" clip-path="url(#p0a17f5d9e8)" style="fill: #dd8452; stroke: #ffffff; stroke-linejoin: miter"/>
   </g>
   <g id="patch_60">
    <path d="M 467.505469 284.4 
L 477.314063 284.4 
L 477.314063 278.992958 
L 467.505469 278.992958 
z
" clip-path="url(#p0a17f5d9e8)" style="fill: #dd8452; stroke: #ffffff; stroke-linejoin: miter"/>
   </g>
   <g id="patch_61">
    <path d="M 489.302344 284.4 
L 499.110938 284.4 
L 499.110938 279.440494 
L 489.302344 279.440494 
z
" clip-path="url(#p0a17f5d9e8)" style="fill: #dd8452; stroke: #ffffff; stroke-linejoin: miter"/>
   </g>
   <g id="patch_62">
    <path d="M 511.099219 284.4 
L 520.907812 284.4 
L 520.907812 279.92697 
L 511.099219 279.92697 
z
" clip-path="url(#p0a17f5d9e8)" style="fill: #dd8452; stroke: #ffffff; stroke-linejoin: miter"/>
   </g>
   <g id="patch_63">
    <path d="M 532.896094 284.4 
L 542.704687 284.4 
L 542.704687 280.344864 
L 532.896094 280.344864 
z
" clip-path="url(#p0a17f5d9e8)" style="fill: #dd8452; stroke: #ffffff; stroke-linejoin: miter"/>
   </g>
   <g id="patch_64">
    <path d="M 554.692969 284.4 
L 564.501562 284.4 
L 564.501562 280.676156 
L 554.692969 280.676156 
z
" clip-path="url(#p0a17f5d9e8)" style="fill: #dd8452; stroke: #ffffff; stroke-linejoin: miter"/>
   </g>
   <g id="patch_65">
    <path d="M 576.489844 284.4 
L 586.298437 284.4 
L 586.298437 281.014423 
L 576.489844 281.014423 
z
" clip-path="url(#p0a17f5d9e8)" style="fill: #dd8452; stroke: #ffffff; stroke-linejoin: miter"/>
   </g>
   <g id="patch_66">
    <path d="M 598.286719 284.4 
L 608.095312 284.4 
L 608.095312 281.255628 
L 598.286719 281.255628 
z
" clip-path="url(#p0a17f5d9e8)" style="fill: #dd8452; stroke: #ffffff; stroke-linejoin: miter"/>
   </g>
   <g id="patch_67">
    <path d="M 620.083594 284.4 
L 629.892187 284.4 
L 629.892187 281.468933 
L 620.083594 281.468933 
z
" clip-path="url(#p0a17f5d9e8)" style="fill: #dd8452; stroke: #ffffff; stroke-linejoin: miter"/>
   </g>
   <g id="patch_68">
    <path d="M 641.880469 284.4 
L 651.689062 284.4 
L 651.689062 281.738617 
L 641.880469 281.738617 
z
" clip-path="url(#p0a17f5d9e8)" style="fill: #dd8452; stroke: #ffffff; stroke-linejoin: miter"/>
   </g>
   <g id="patch_69">
    <path d="M 663.677344 284.4 
L 673.485937 284.4 
L 673.485937 281.987377 
L 663.677344 281.987377 
z
" clip-path="url(#p0a17f5d9e8)" style="fill: #dd8452; stroke: #ffffff; stroke-linejoin: miter"/>
   </g>
   <g id="patch_70">
    <path d="M 685.474219 284.4 
L 695.282812 284.4 
L 695.282812 282.158254 
L 685.474219 282.158254 
z
" clip-path="url(#p0a17f5d9e8)" style="fill: #dd8452; stroke: #ffffff; stroke-linejoin: miter"/>
   </g>
   <g id="patch_71">
    <path d="M 707.271094 284.4 
L 717.079687 284.4 
L 717.079687 282.326225 
L 707.271094 282.326225 
z
" clip-path="url(#p0a17f5d9e8)" style="fill: #dd8452; stroke: #ffffff; stroke-linejoin: miter"/>
   </g>
   <g id="patch_72">
    <path d="M 729.067969 284.4 
L 738.876562 284.4 
L 738.876562 282.409339 
L 729.067969 282.409339 
z
" clip-path="url(#p0a17f5d9e8)" style="fill: #dd8452; stroke: #ffffff; stroke-linejoin: miter"/>
   </g>
   <g id="patch_73">
    <path d="M 750.864844 284.4 
L 760.673438 284.4 
L 760.673438 282.574404 
L 750.864844 282.574404 
z
" clip-path="url(#p0a17f5d9e8)" style="fill: #dd8452; stroke: #ffffff; stroke-linejoin: miter"/>
   </g>
   <g id="patch_74">
    <path d="M 772.661719 284.4 
L 782.470312 284.4 
L 782.470312 282.669723 
L 772.661719 282.669723 
z
" clip-path="url(#p0a17f5d9e8)" style="fill: #dd8452; stroke: #ffffff; stroke-linejoin: miter"/>
   </g>
   <g id="patch_75">
    <path d="M 794.458594 284.4 
L 804.267187 284.4 
L 804.267187 282.791197 
L 794.458594 282.791197 
z
" clip-path="url(#p0a17f5d9e8)" style="fill: #dd8452; stroke: #ffffff; stroke-linejoin: miter"/>
   </g>
   <g id="patch_76">
    <path d="M 816.255469 284.4 
L 826.064062 284.4 
L 826.064062 282.909765 
L 816.255469 282.909765 
z
" clip-path="url(#p0a17f5d9e8)" style="fill: #dd8452; stroke: #ffffff; stroke-linejoin: miter"/>
   </g>
   <g id="patch_77">
    <path d="M 838.052344 284.4 
L 847.860937 284.4 
L 847.860937 283.025427 
L 838.052344 283.025427 
z
" clip-path="url(#p0a17f5d9e8)" style="fill: #dd8452; stroke: #ffffff; stroke-linejoin: miter"/>
   </g>
   <g id="patch_78">
    <path d="M 859.849219 284.4 
L 869.657812 284.4 
L 869.657812 283.081223 
L 859.849219 283.081223 
z
" clip-path="url(#p0a17f5d9e8)" style="fill: #dd8452; stroke: #ffffff; stroke-linejoin: miter"/>
   </g>
   <g id="patch_79">
    <path d="M 38.107031 284.4 
L 38.107031 7.2 
" style="fill: none; stroke: #ffffff; stroke-width: 1.25; stroke-linejoin: miter; stroke-linecap: square"/>
   </g>
   <g id="patch_80">
    <path d="M 875.107031 284.4 
L 875.107031 7.2 
" style="fill: none; stroke: #ffffff; stroke-width: 1.25; stroke-linejoin: miter; stroke-linecap: square"/>
   </g>
   <g id="patch_81">
    <path d="M 38.107031 284.4 
L 875.107031 284.4 
" style="fill: none; stroke: #ffffff; stroke-width: 1.25; stroke-linejoin: miter; stroke-linecap: square"/>
   </g>
   <g id="patch_82">
    <path d="M 38.107031 7.2 
L 875.107031 7.2 
" style="fill: none; stroke: #ffffff; stroke-width: 1.25; stroke-linejoin: miter; stroke-linecap: square"/>
   </g>
   <g id="legend_1">
    <g id="patch_83">
     <path d="M 810.810313 47.119688 
L 867.407031 47.119688 
Q 869.607031 47.119688 869.607031 44.919688 
L 869.607031 14.9 
Q 869.607031 12.7 867.407031 12.7 
L 810.810313 12.7 
Q 808.610312 12.7 808.610312 14.9 
L 808.610312 44.919688 
Q 808.610312 47.119688 810.810313 47.119688 
z
" style="fill: #eaeaf2; opacity: 0.8; stroke: #cccccc; stroke-linejoin: miter"/>
    </g>
    <g id="patch_84">
     <path d="M 813.010312 24.973594 
L 835.010312 24.973594 
L 835.010312 17.273594 
L 813.010312 17.273594 
z
" style="fill: #4c72b0; stroke: #ffffff; stroke-linejoin: miter"/>
    </g>
    <g id="text_44">
     <!-- train -->
     <g style="fill: #262626" transform="translate(843.810312 24.973594) scale(0.11 -0.11)">
      <defs>
       <path id="ArialMT-74" d="M 1650 503 
L 1731 6 
Q 1494 -44 1306 -44 
Q 1000 -44 831 53 
Q 663 150 594 308 
Q 525 466 525 972 
L 525 2881 
L 113 2881 
L 113 3319 
L 525 3319 
L 525 4141 
L 1084 4478 
L 1084 3319 
L 1650 3319 
L 1650 2881 
L 1084 2881 
L 1084 941 
Q 1084 700 1114 631 
Q 1144 563 1211 522 
Q 1278 481 1403 481 
Q 1497 481 1650 503 
z
" transform="scale(0.015625)"/>
       <path id="ArialMT-72" d="M 416 0 
L 416 3319 
L 922 3319 
L 922 2816 
Q 1116 3169 1280 3281 
Q 1444 3394 1641 3394 
Q 1925 3394 2219 3213 
L 2025 2691 
Q 1819 2813 1613 2813 
Q 1428 2813 1281 2702 
Q 1134 2591 1072 2394 
Q 978 2094 978 1738 
L 978 0 
L 416 0 
z
" transform="scale(0.015625)"/>
       <path id="ArialMT-61" d="M 2588 409 
Q 2275 144 1986 34 
Q 1697 -75 1366 -75 
Q 819 -75 525 192 
Q 231 459 231 875 
Q 231 1119 342 1320 
Q 453 1522 633 1644 
Q 813 1766 1038 1828 
Q 1203 1872 1538 1913 
Q 2219 1994 2541 2106 
Q 2544 2222 2544 2253 
Q 2544 2597 2384 2738 
Q 2169 2928 1744 2928 
Q 1347 2928 1158 2789 
Q 969 2650 878 2297 
L 328 2372 
Q 403 2725 575 2942 
Q 747 3159 1072 3276 
Q 1397 3394 1825 3394 
Q 2250 3394 2515 3294 
Q 2781 3194 2906 3042 
Q 3031 2891 3081 2659 
Q 3109 2516 3109 2141 
L 3109 1391 
Q 3109 606 3145 398 
Q 3181 191 3288 0 
L 2700 0 
Q 2613 175 2588 409 
z
M 2541 1666 
Q 2234 1541 1622 1453 
Q 1275 1403 1131 1340 
Q 988 1278 909 1158 
Q 831 1038 831 891 
Q 831 666 1001 516 
Q 1172 366 1500 366 
Q 1825 366 2078 508 
Q 2331 650 2450 897 
Q 2541 1088 2541 1459 
L 2541 1666 
z
" transform="scale(0.015625)"/>
       <path id="ArialMT-69" d="M 425 3934 
L 425 4581 
L 988 4581 
L 988 3934 
L 425 3934 
z
M 425 0 
L 425 3319 
L 988 3319 
L 988 0 
L 425 0 
z
" transform="scale(0.015625)"/>
       <path id="ArialMT-6e" d="M 422 0 
L 422 3319 
L 928 3319 
L 928 2847 
Q 1294 3394 1984 3394 
Q 2284 3394 2536 3286 
Q 2788 3178 2913 3003 
Q 3038 2828 3088 2588 
Q 3119 2431 3119 2041 
L 3119 0 
L 2556 0 
L 2556 2019 
Q 2556 2363 2490 2533 
Q 2425 2703 2258 2804 
Q 2091 2906 1866 2906 
Q 1506 2906 1245 2678 
Q 984 2450 984 1813 
L 984 0 
L 422 0 
z
" transform="scale(0.015625)"/>
      </defs>
      <use xlink:href="#ArialMT-74"/>
      <use xlink:href="#ArialMT-72" x="27.783203"/>
      <use xlink:href="#ArialMT-61" x="61.083984"/>
      <use xlink:href="#ArialMT-69" x="116.699219"/>
      <use xlink:href="#ArialMT-6e" x="138.916016"/>
     </g>
    </g>
    <g id="patch_85">
     <path d="M 813.010312 40.533438 
L 835.010312 40.533438 
L 835.010312 32.833438 
L 813.010312 32.833438 
z
" style="fill: #dd8452; stroke: #ffffff; stroke-linejoin: miter"/>
    </g>
    <g id="text_46">
     <!-- test -->
     <g style="fill: #262626" transform="translate(843.810312 40.533438) scale(0.11 -0.11)">
      <defs>
       <path id="ArialMT-65" d="M 2694 1069 
L 3275 997 
Q 3138 488 2766 206 
Q 2394 -75 1816 -75 
Q 1088 -75 661 373 
Q 234 822 234 1631 
Q 234 2469 665 2931 
Q 1097 3394 1784 3394 
Q 2450 3394 2872 2941 
Q 3294 2488 3294 1666 
Q 3294 1616 3291 1516 
L 816 1516 
Q 847 969 1125 678 
Q 1403 388 1819 388 
Q 2128 388 2347 550 
Q 2566 713 2694 1069 
z
M 847 1978 
L 2700 1978 
Q 2663 2397 2488 2606 
Q 2219 2931 1791 2931 
Q 1403 2931 1139 2672 
Q 875 2413 847 1978 
z
" transform="scale(0.015625)"/>
       <path id="ArialMT-73" d="M 197 991 
L 753 1078 
Q 800 744 1014 566 
Q 1228 388 1613 388 
Q 2000 388 2187 545 
Q 2375 703 2375 916 
Q 2375 1106 2209 1216 
Q 2094 1291 1634 1406 
Q 1016 1563 777 1677 
Q 538 1791 414 1992 
Q 291 2194 291 2438 
Q 291 2659 392 2848 
Q 494 3038 669 3163 
Q 800 3259 1026 3326 
Q 1253 3394 1513 3394 
Q 1903 3394 2198 3281 
Q 2494 3169 2634 2976 
Q 2775 2784 2828 2463 
L 2278 2388 
Q 2241 2644 2061 2787 
Q 1881 2931 1553 2931 
Q 1166 2931 1000 2803 
Q 834 2675 834 2503 
Q 834 2394 903 2306 
Q 972 2216 1119 2156 
Q 1203 2125 1616 2013 
Q 2213 1853 2448 1751 
Q 2684 1650 2818 1456 
Q 2953 1263 2953 975 
Q 2953 694 2789 445 
Q 2625 197 2315 61 
Q 2006 -75 1616 -75 
Q 969 -75 630 194 
Q 291 463 197 991 
z
" transform="scale(0.015625)"/>
      </defs>
      <use xlink:href="#ArialMT-74"/>
      <use xlink:href="#ArialMT-65" x="27.783203"/>
      <use xlink:href="#ArialMT-73" x="83.398438"/>
      <use xlink:href="#ArialMT-74" x="133.398438"/>
     </g>
    </g>
   </g>
  </g>
 </g>
 <defs>
  <clipPath id="p0a17f5d9e8">
   <rect x="38.107031" y="7.2" width="837" height="277.2"/>
  </clipPath>
 </defs>
</svg>
